<?xml version="1.0" standalone="no"?>
<!DOCTYPE svg PUBLIC "-//W3C//DTD SVG 20010904//EN"
 "http://www.w3.org/TR/2001/REC-SVG-20010904/DTD/svg10.dtd">
<svg version="1.0" xmlns="http://www.w3.org/2000/svg"
 width="880.000000pt" height="480.000000pt" viewBox="0 0 880.000000 768.000000"
 preserveAspectRatio="xMidYMid meet">

<g transform="translate(0.000000,768.000000) scale(0.100000,-0.100000)"
fill="#000000" stroke="none">
<path d="M7335 7654 c-11 -3 -47 -9 -80 -15 -184 -33 -413 -192 -520 -361 -17
-27 -35 -48 -42 -48 -6 0 -54 13 -105 29 -51 16 -120 36 -153 46 -33 9 -71 20
-85 25 -14 4 -65 20 -115 34 -49 15 -124 38 -165 51 -42 14 -83 25 -93 25 -9
0 -25 4 -35 9 -9 5 -44 16 -77 26 -33 10 -71 21 -85 25 -73 23 -184 56 -255
76 -44 12 -111 32 -150 43 -78 24 -119 27 -185 17 -105 -17 -164 -51 -232
-134 -15 -19 -68 -125 -68 -137 0 -3 -22 -52 -50 -109 -28 -57 -50 -107 -50
-109 0 -3 -16 -41 -36 -84 -34 -73 -48 -105 -79 -178 -24 -55 -93 -209 -130
-290 -13 -27 -30 -66 -38 -85 -8 -19 -31 -70 -51 -113 -20 -43 -36 -81 -36
-84 0 -2 -15 -37 -34 -76 -18 -40 -40 -88 -49 -107 -8 -19 -30 -66 -47 -105
-17 -38 -38 -85 -46 -102 -8 -18 -20 -48 -28 -65 -8 -18 -28 -63 -45 -100 -17
-37 -37 -84 -46 -105 -39 -95 -91 -194 -105 -198 -8 -2 -53 -6 -100 -10 -100
-6 -245 -23 -315 -35 -27 -5 -93 -17 -145 -25 -86 -15 -259 -52 -350 -75 -132
-33 -511 -158 -526 -173 -4 -4 -13 -7 -20 -7 -16 0 -76 -27 -292 -132 -89 -43
-166 -76 -171 -73 -5 3 -22 24 -38 48 -80 120 -213 251 -333 328 -75 49 -220
119 -245 119 -9 0 -24 4 -34 9 -34 19 -212 41 -325 41 -291 0 -536 -102 -749
-313 -232 -230 -327 -456 -327 -780 0 -158 10 -228 50 -347 86 -256 287 -495
525 -625 68 -37 68 -36 51 -86 -28 -82 -61 -251 -76 -389 -14 -124 -2 -443 22
-555 96 -464 300 -841 653 -1204 132 -135 249 -239 369 -325 43 -31 95 -70
116 -86 21 -17 41 -30 45 -30 5 0 23 -11 41 -25 18 -14 36 -25 39 -25 4 0 21
-10 38 -22 33 -24 41 -29 122 -73 28 -15 55 -31 60 -35 13 -11 211 -110 219
-110 3 0 29 -11 58 -24 116 -52 147 -65 238 -101 52 -20 120 -44 150 -54 64
-21 222 -69 265 -81 17 -5 53 -15 80 -23 57 -17 113 -30 200 -47 33 -6 87 -18
120 -25 33 -8 98 -19 145 -25 47 -6 112 -15 145 -20 33 -5 100 -13 148 -16 48
-4 90 -11 93 -16 7 -11 911 -11 918 0 3 5 45 12 93 16 48 3 115 11 148 16 33
5 98 14 145 20 47 7 103 16 124 22 22 5 63 14 90 19 123 24 143 28 176 37 19
5 79 21 132 36 167 45 410 128 538 182 19 9 44 19 55 23 75 30 324 151 395
191 112 65 328 203 416 268 138 101 197 153 344 301 214 215 352 401 483 651
67 127 147 319 147 351 0 10 4 28 9 41 12 31 37 131 50 198 20 109 33 444 21
548 -14 114 -41 257 -69 362 -23 85 -25 81 59 125 70 36 160 105 239 186 70
70 151 168 151 182 0 4 15 30 33 59 37 58 76 152 100 238 9 30 21 73 27 95 7
25 10 105 8 215 -3 141 -8 192 -27 265 -87 339 -375 650 -703 759 -120 40
-222 56 -347 56 -230 -1 -404 -47 -576 -153 -78 -49 -245 -181 -245 -195 0 -4
-15 -23 -33 -42 -19 -19 -53 -63 -76 -97 -24 -35 -46 -63 -51 -63 -4 0 -75 33
-157 74 -135 67 -290 136 -353 157 -14 4 -77 26 -140 49 -63 23 -128 46 -145
50 -16 5 -55 16 -85 25 -259 76 -533 130 -830 164 -213 24 -252 29 -257 34 -2
3 0 13 5 24 6 10 17 34 25 53 8 19 31 70 51 113 20 43 36 80 36 82 0 3 13 33
29 67 15 35 39 86 51 113 12 28 36 79 52 115 16 36 36 78 44 94 8 16 14 33 14
37 0 4 16 43 36 86 20 43 42 92 49 108 7 17 29 65 49 107 20 42 36 79 36 82 0
2 16 40 36 83 20 43 43 94 51 113 42 97 73 160 79 160 9 0 185 -47 235 -63 24
-8 71 -22 104 -32 33 -9 74 -21 90 -26 31 -9 180 -51 250 -71 22 -6 58 -16 80
-23 22 -7 58 -18 80 -24 22 -5 81 -22 130 -36 50 -14 108 -31 130 -37 130 -34
129 -33 179 -132 91 -179 247 -323 436 -399 194 -78 462 -71 651 16 59 27 162
99 218 151 35 33 141 161 141 171 0 3 11 23 24 44 33 51 72 172 82 246 13 114
3 282 -25 393 -15 58 -73 173 -117 233 -36 49 -201 209 -216 209 -5 0 -25 10
-46 23 -64 40 -144 69 -237 88 -81 17 -219 23 -270 13z m184 -530 c69 -24 95
-40 134 -83 59 -65 77 -113 77 -203 0 -96 -29 -167 -91 -223 -62 -56 -121 -78
-209 -78 -89 -1 -143 21 -208 84 -138 135 -115 372 47 467 88 52 170 64 250
36z m-6191 -2241 c37 -14 85 -38 107 -52 88 -56 214 -208 190 -229 -6 -5 -42
-34 -82 -65 -165 -130 -411 -389 -543 -570 -65 -90 -79 -93 -154 -40 -113 81
-178 166 -224 292 -22 62 -21 246 2 314 54 160 176 288 336 353 46 19 75 22
178 23 112 1 130 -2 190 -26z m6552 6 c70 -26 112 -52 177 -106 56 -47 149
-177 159 -221 3 -15 10 -38 15 -51 5 -13 10 -76 10 -140 0 -107 -2 -121 -29
-185 -43 -100 -109 -186 -189 -245 -97 -72 -103 -70 -193 50 -100 135 -243
292 -376 414 -60 55 -111 102 -114 105 -3 3 -31 24 -62 48 -32 23 -58 46 -58
51 0 13 57 93 97 137 45 49 108 92 183 127 80 36 75 35 205 36 99 1 130 -3
175 -20z m-3045 -90 c114 -11 233 -25 320 -39 28 -5 79 -13 115 -18 36 -6 103
-19 150 -30 47 -11 96 -23 110 -25 14 -3 68 -17 120 -32 52 -15 109 -30 125
-35 109 -29 372 -134 533 -211 67 -32 126 -59 131 -59 5 0 11 -4 13 -9 2 -4
30 -23 63 -41 90 -49 281 -179 371 -251 157 -126 350 -333 429 -459 15 -25 31
-47 35 -50 6 -4 24 -34 90 -155 9 -16 29 -61 44 -100 16 -38 32 -79 37 -90 23
-53 39 -121 60 -245 21 -126 21 -146 11 -305 -6 -93 -16 -188 -22 -210 -7 -22
-19 -65 -27 -95 -50 -186 -152 -380 -290 -553 -94 -119 -262 -287 -383 -384
-377 -301 -944 -549 -1505 -657 -44 -9 -102 -20 -130 -26 -52 -10 -155 -24
-310 -41 -231 -26 -694 -31 -910 -9 -256 26 -293 31 -510 71 -217 39 -605 155
-773 230 -24 11 -62 27 -85 36 -36 14 -271 132 -347 174 -14 8 -65 40 -115 73
-354 231 -650 550 -787 846 -65 140 -67 145 -83 203 -8 32 -22 83 -31 114 -8
32 -21 120 -29 197 -11 117 -11 156 1 252 27 221 67 354 159 529 98 187 200
323 369 490 154 153 349 301 541 411 33 19 67 39 75 44 34 22 262 129 316 150
33 12 73 27 89 35 17 7 53 20 80 30 28 9 79 27 115 40 36 12 85 28 110 35 25
7 65 18 90 25 25 7 63 17 85 23 64 18 263 59 345 72 41 7 98 16 125 21 233 42
783 56 1080 28z"/>
<path d="M2685 3824 c-164 -42 -264 -107 -349 -228 -75 -106 -98 -177 -99
-305 -1 -118 15 -187 61 -271 67 -121 189 -224 312 -264 76 -24 205 -32 282
-17 142 28 289 129 364 252 52 85 74 174 74 293 0 131 -24 208 -96 312 -69 99
-157 167 -269 207 -49 18 -237 32 -280 21z"/>
<path d="M5970 3824 c-114 -22 -205 -70 -293 -157 -62 -61 -102 -124 -134
-216 -33 -95 -33 -250 1 -350 60 -178 229 -326 414 -362 76 -14 204 -7 281 16
158 48 315 210 357 369 17 64 17 246 0 306 -25 89 -79 180 -146 247 -38 38
-149 106 -205 127 -49 17 -221 30 -275 20z"/>
<path d="M3065 2184 c-127 -31 -176 -62 -234 -148 -69 -103 -70 -256 -3 -360
32 -48 32 -49 98 -104 29 -23 56 -42 62 -42 6 0 12 -3 14 -8 3 -7 101 -70 158
-101 219 -122 505 -227 770 -281 119 -25 367 -50 495 -50 128 0 376 25 495 50
321 66 693 215 893 356 26 19 52 34 57 34 6 0 10 3 10 8 0 4 25 24 54 46 118
84 160 197 130 342 -18 87 -47 138 -104 183 -83 66 -193 92 -288 67 -54 -14
-84 -30 -211 -115 -20 -14 -85 -50 -146 -81 -94 -48 -140 -68 -270 -120 -18
-7 -159 -50 -230 -70 -94 -26 -194 -35 -400 -34 -232 1 -292 8 -485 62 -120
34 -353 132 -469 198 -18 10 -74 46 -125 79 -50 33 -103 65 -117 72 -31 13
-125 24 -154 17z"/>
</g>
</svg>
