<?xml version="1.0" standalone="no"?>
<!DOCTYPE svg PUBLIC "-//W3C//DTD SVG 20010904//EN"
 "http://www.w3.org/TR/2001/REC-SVG-20010904/DTD/svg10.dtd">
<svg version="1.0" xmlns="http://www.w3.org/2000/svg"
 width="512.000000pt" height="512.000000pt" viewBox="0 0 512.000000 512.000000"
 preserveAspectRatio="xMidYMid meet">

<g transform="translate(0.000000,512.000000) scale(0.100000,-0.100000)"
fill="#000000" stroke="none">
<path d="M907 3854 c-1 -1 -20 -4 -43 -6 -23 -3 -46 -8 -52 -12 -6 -3 -13 -2
-17 4 -10 16 -58 3 -76 -21 -44 -58 -148 -245 -192 -343 -379 -849 -200 -1832
454 -2486 352 -351 787 -565 1294 -635 154 -22 501 -16 645 10 475 86 882 296
1211 624 623 623 819 1559 498 2382 -84 215 -239 479 -281 479 -19 0 -20 -2
-8 -10 16 -11 -6 -9 -60 6 -52 14 -251 7 -267 -10 -3 -3 -12 -1 -20 5 -9 8
-17 8 -26 0 -8 -6 -17 -8 -21 -4 -3 4 -64 8 -134 10 -90 3 -123 0 -112 -7 16
-11 0 -10 -60 5 -76 18 -77 18 -38 -12 82 -61 119 -158 94 -252 -16 -61 -35
-92 -81 -127 -70 -53 -174 -61 -254 -19 -43 22 -93 86 -111 141 l-15 49 -220
47 c-121 26 -225 47 -231 48 -6 0 -40 -137 -78 -317 -37 -175 -70 -328 -73
-340 -5 -21 -2 -23 42 -23 204 0 533 -98 720 -215 40 -25 78 -45 85 -45 6 0
27 12 45 26 19 14 55 32 81 40 148 44 303 -20 379 -157 27 -49 30 -62 30 -149
0 -79 -4 -103 -23 -142 -23 -46 -92 -122 -132 -143 -18 -10 -21 -22 -24 -120
-4 -146 -35 -242 -116 -362 -167 -249 -469 -425 -850 -495 -164 -30 -456 -30
-621 0 -293 54 -542 171 -722 341 -166 157 -247 332 -247 538 0 82 -2 92 -19
98 -37 11 -128 121 -146 176 -26 78 -17 189 20 258 91 167 319 225 460 117 18
-14 38 -26 43 -26 5 0 45 22 90 49 196 118 515 211 723 211 l54 0 79 383 c44
210 82 391 86 402 7 19 3 20 -129 23 -96 1 -132 -1 -121 -8 16 -11 -6 -9 -60
6 -52 14 -251 7 -267 -10 -3 -3 -12 -1 -20 5 -9 8 -17 8 -26 0 -8 -6 -17 -8
-21 -4 -3 4 -64 8 -134 10 -90 3 -123 0 -112 -7 16 -11 -5 -9 -60 6 -52 14
-251 7 -267 -10 -3 -3 -12 -1 -20 5 -9 8 -17 8 -26 0 -8 -6 -17 -8 -21 -4 -3
4 -64 8 -134 10 -90 3 -123 0 -112 -7 16 -11 -4 -9 -60 6 -23 6 -167 13 -173
8z m31 -21 c-10 -2 -26 -2 -35 0 -10 3 -2 5 17 5 19 0 27 -2 18 -5z m640 0
c-10 -2 -26 -2 -35 0 -10 3 -2 5 17 5 19 0 27 -2 18 -5z m640 0 c-10 -2 -26
-2 -35 0 -10 3 -2 5 17 5 19 0 27 -2 18 -5z m1920 0 c-10 -2 -26 -2 -35 0 -10
3 -2 5 17 5 19 0 27 -2 18 -5z"/>
<path d="M2814 3849 c-14 -6 -9 -8 19 -8 20 -1 40 -1 43 0 4 0 10 -3 13 -8 3
-5 89 -27 190 -48 175 -37 184 -38 197 -21 7 10 26 32 41 50 l29 31 -151 2
c-103 2 -145 0 -135 -7 16 -11 -5 -9 -60 6 -37 9 -164 11 -186 3z"/>
<path d="M1964 2512 c-85 -40 -146 -152 -129 -239 33 -177 231 -250 366 -135
82 70 102 174 52 273 -40 78 -94 112 -181 117 -50 2 -77 -2 -108 -16z"/>
<path d="M2962 2509 c-141 -70 -165 -262 -46 -370 142 -128 370 -23 368 170
-1 164 -176 272 -322 200z"/>
<path d="M2028 1788 c-52 -41 -10 -106 105 -163 118 -58 210 -77 392 -82 134
-4 176 -2 255 15 159 33 275 88 322 153 42 56 -25 115 -80 70 -47 -37 -142
-82 -221 -103 -110 -31 -372 -30 -483 0 -82 22 -152 55 -207 96 -39 29 -59 32
-83 14z"/>
</g>
</svg>
